<svg width="55" height="55" viewBox="0 0 55 55" fill="none" xmlns="http://www.w3.org/2000/svg">
<path d="M27.5 55C20.4132 55 13.7279 54.0547 8.67561 52.3382C1.5052 49.9021 0 46.7817 0 44.5931C0 41.7379 2.55116 39.737 4.69122 38.5614C5.47143 38.1329 6.45079 38.4179 6.8793 39.1978C7.3078 39.9778 7.02292 40.9575 6.24293 41.3859C4.32352 42.4403 3.22266 43.6093 3.22266 44.5931C3.22266 45.7963 4.92744 47.6611 9.71233 49.2867C14.4394 50.8929 20.7566 51.7773 27.5 51.7773C34.2434 51.7773 40.5606 50.8929 45.2877 49.2867C50.0726 47.6612 51.7773 45.7963 51.7773 44.5931C51.7773 43.6093 50.6765 42.4403 48.7571 41.3858C47.9771 40.9574 47.6922 39.9777 48.1207 39.1977C48.549 38.4178 49.5286 38.1328 50.3088 38.5613C52.4488 39.7371 55 41.7379 55 44.5931C55 46.7817 53.4948 49.9021 46.3244 52.3382C41.2721 54.0547 34.5868 55 27.5 55Z" fill="#C9DFF7"/>
<path d="M50.3087 38.5614C49.5285 38.1329 48.5489 38.4179 48.1206 39.1978C47.6921 39.9778 47.977 40.9575 48.757 41.3859C50.6764 42.4403 51.7773 43.6093 51.7773 44.5931C51.7773 45.7963 50.0725 47.6612 45.2876 49.2868C40.5605 50.893 34.2433 51.7774 27.4999 51.7774C27.4998 51.7774 27.4996 51.7774 27.4995 51.7774V55C27.4996 55 27.4998 55 27.4999 55C34.5868 55 41.2721 54.0547 46.3243 52.3382C53.4947 49.9021 54.9999 46.7817 54.9999 44.5931C54.9999 41.7379 52.4488 39.7371 50.3087 38.5614Z" fill="#AECEF2"/>
<path d="M27.4999 48.3923C22.926 48.3923 18.6056 47.8834 15.3346 46.9593C11.3328 45.8289 9.30371 44.1924 9.30371 42.0957C9.30371 39.999 11.3328 38.3627 15.3346 37.2323C18.6056 36.3082 22.926 35.7993 27.4999 35.7993C32.0738 35.7993 36.3942 36.3082 39.6652 37.2323C43.667 38.3627 45.6961 39.9991 45.6961 42.0957C45.6961 44.1924 43.667 45.8289 39.6652 46.9593C36.3942 47.8833 32.0738 48.3923 27.4999 48.3923ZM12.5537 42.0956C12.7748 42.4204 13.8507 43.2648 16.7957 44.0148C19.719 44.7595 23.5206 45.1695 27.4998 45.1695C31.479 45.1695 35.2807 44.7595 38.2039 44.0148C41.149 43.2648 42.2249 42.4203 42.446 42.0956C42.2248 41.771 41.1489 40.9266 38.2038 40.1764C35.2806 39.4319 31.4791 39.0219 27.4998 39.0219C23.5205 39.0219 19.719 39.4319 16.7957 40.1764C13.8508 40.9267 12.7749 41.771 12.5537 42.0956ZM42.4829 42.1623H42.4841H42.4829Z" fill="#C9DFF7"/>
<path d="M39.6648 37.2302C36.3938 36.3061 32.0734 35.7972 27.4995 35.7972C27.4993 35.7972 27.4991 35.7972 27.499 35.7972V39.0199C27.4991 39.0199 27.4993 39.0199 27.4995 39.0199C31.4788 39.0199 35.2802 39.4299 38.2035 40.1745C41.1486 40.9246 42.2245 41.769 42.4457 42.0937C42.2244 42.4184 41.1487 43.2628 38.2036 44.0129C35.2803 44.7575 31.4788 45.1675 27.4995 45.1675C27.4993 45.1675 27.4991 45.1675 27.499 45.1675V48.3902C27.4991 48.3902 27.4993 48.3902 27.4995 48.3902C32.0734 48.3902 36.3938 47.8813 39.6648 46.9572C43.6666 45.8268 45.6956 44.1903 45.6956 42.0937C45.6956 39.997 43.6666 38.3606 39.6648 37.2302Z" fill="#AECEF2"/>
<path d="M27.4999 0C19.2405 0 12.521 6.71945 12.521 14.9788C12.521 20.1233 18.7711 31.4291 24.0143 40.0075C24.7626 41.2318 26.0656 41.9626 27.4999 41.9626C28.9343 41.9626 30.2372 41.2317 30.9855 40.0075C36.2288 31.4291 42.4788 20.1233 42.4788 14.9788C42.4788 6.71945 35.7594 0 27.4999 0ZM27.4999 19.9709C24.1801 19.9709 21.4792 17.2701 21.4792 13.9503C21.4792 10.6307 24.1801 7.92988 27.4999 7.92988C30.8197 7.92988 33.5206 10.6307 33.5206 13.9503C33.5206 17.2702 30.8197 19.9709 27.4999 19.9709Z" fill="#FE5857"/>
<path d="M27.4999 0C27.4998 0 27.4996 0 27.4995 0V7.92988C27.4996 7.92988 27.4998 7.92988 27.4999 7.92988C30.8197 7.92988 33.5206 10.6307 33.5206 13.9503C33.5206 17.2701 30.8197 19.9709 27.4999 19.9709C27.4998 19.9709 27.4996 19.9709 27.4995 19.9709V41.9626C27.4996 41.9626 27.4998 41.9626 27.4999 41.9626C28.9343 41.9626 30.2373 41.2317 30.9856 40.0075C36.2288 31.4291 42.4789 20.1233 42.4789 14.9788C42.4789 6.71945 35.7594 0 27.4999 0Z" fill="#DB0253"/>
</svg>
