<svg xmlns="http://www.w3.org/2000/svg" xmlns:xlink="http://www.w3.org/1999/xlink" viewBox="0 0 400 300" width="406" height="306" class="illustration styles_illustrationTablet__1DWOa"><defs><linearGradient id="linear-gradient" x1="163.55" y1="250.4" x2="230.86" y2="156.16" gradientUnits="userSpaceOnUse"><stop offset="0" stop-opacity="0"></stop><stop offset="1" stop-color="#935a24"></stop></linearGradient><linearGradient id="linear-gradient-2" x1="231.54" y1="216.91" x2="299.79" y2="148.66" gradientUnits="userSpaceOnUse"><stop offset="0" stop-opacity="0"></stop><stop offset="1" stop-color="#f15a24"></stop></linearGradient><linearGradient id="linear-gradient-3" x1="36.06" y1="192.02" x2="57.55" y2="175.14" xlink:href="#linear-gradient-2"></linearGradient><linearGradient id="linear-gradient-4" x1="303.41" y1="220.35" x2="379.04" y2="158.95" xlink:href="#linear-gradient-2"></linearGradient><linearGradient id="linear-gradient-5" x1="187.7" y1="169.66" x2="183.37" y2="173.62" gradientUnits="userSpaceOnUse"><stop offset="0" stop-color="#d4a397"></stop><stop offset="1" stop-color="#fff"></stop></linearGradient><linearGradient id="linear-gradient-6" x1="166.21" y1="152.88" x2="160.86" y2="157.76" xlink:href="#linear-gradient-5"></linearGradient><linearGradient id="linear-gradient-7" x1="215.16" y1="146.62" x2="208.3" y2="155.45" xlink:href="#linear-gradient-5"></linearGradient><linearGradient id="linear-gradient-8" x1="190.28" y1="137.3" x2="183.99" y2="143.04" xlink:href="#linear-gradient-5"></linearGradient></defs><title>PP</title><g style="isolation: isolate;"><g id="Layer_2" data-name="Layer 2"><polygon points="285.14 162.97 315.22 145.6 296.26 134.6 266.13 152 285.14 162.97" fill="#ffa87d"></polygon><polygon points="266.13 196.76 286.65 208.61 305.66 197.63 285.14 185.79 266.13 196.76" fill="#ffa87d"></polygon><polygon points="73.76 153.28 62.6 146.84 42.06 158.68 53.24 165.13 73.76 153.28" fill="#ffa87d"></polygon><polygon points="227.36 219.14 247.88 230.99 266.89 220.02 246.37 208.17 227.36 219.14" fill="#ffa87d"></polygon><polygon points="112.53 130.9 101.41 124.47 82.38 135.44 93.53 141.87 112.53 130.9" fill="#ffa87d"></polygon><polygon points="187.08 242.4 207.6 254.25 228.12 242.4 207.6 230.55 187.08 242.4" fill="#ffa87d"></polygon><polygon points="151.3 108.52 140.21 102.11 121.19 113.08 132.29 119.49 151.3 108.52" fill="#ffa87d"></polygon><path d="M201.44,79.57,194,75.26c-2.64-1.53-6.59-.48-9.18,1.13L160,90.71l11.07,6.39Z" fill="#ffa87d"></path><polygon points="207.6 118.2 237.88 100.72 221.15 91.01 190.83 108.52 207.6 118.2" fill="#ffa87d"></polygon><polygon points="246.37 140.58 276.55 123.16 257.6 112.16 227.36 129.61 246.37 140.58" fill="#ffa87d"></polygon><polygon points="188.6 196.76 207.6 207.73 226.61 196.76 207.6 185.79 188.6 196.76" fill="#ffa87d"></polygon><polygon points="246.37 185.35 265.38 174.38 246.37 163.41 227.36 174.38 246.37 185.35" fill="#ffa87d"></polygon><polygon points="168.83 208.17 148.31 220.02 167.32 230.99 187.84 219.14 168.83 208.17" fill="#ffa87d"></polygon><polygon points="168.83 163.41 149.83 174.38 168.83 185.35 187.84 174.38 168.83 163.41" fill="#ffa87d"></polygon><polygon points="207.6 162.97 226.61 152 207.6 141.02 188.59 152 207.6 162.97" fill="#ffa87d"></polygon><polygon points="93.53 164.69 73.01 176.54 89.78 186.22 110.3 174.38 93.53 164.69" fill="#ffa87d"></polygon><polygon points="130.06 185.79 109.54 197.63 128.55 208.61 149.07 196.76 130.06 185.79" fill="#ffa87d"></polygon><polygon points="187.84 129.61 171.06 119.93 152.06 130.9 168.83 140.58 187.84 129.61" fill="#ffa87d"></polygon><polygon points="149.07 152 132.29 142.31 113.29 153.28 130.06 162.97 149.07 152" fill="#ffa87d"></polygon><polygon points="325.42 186.22 355.4 168.92 334.93 157.04 304.9 174.38 325.42 186.22" fill="#ffa87d"></polygon><polygon points="306.42 220.02 319.81 227.75 338.93 216.84 325.42 209.04 306.42 220.02" fill="#ffa87d"></polygon><polygon points="89.78 209.04 71.08 219.84 89.86 230.95 108.79 220.02 89.78 209.04" fill="#ffa87d"></polygon><polygon points="227.36 265.66 240.32 273.14 260.95 261.36 247.88 253.81 227.36 265.66" fill="#ffa87d"></polygon><polygon points="267.65 242.4 280.83 250.01 299.94 239.1 286.65 231.43 267.65 242.4" fill="#ffa87d"></polygon><polygon points="128.55 231.43 109.39 242.49 128.17 253.59 147.56 242.4 128.55 231.43" fill="#ffa87d"></polygon><polygon points="53.24 187.95 34.96 198.5 51.54 208.3 70.02 197.63 53.24 187.95" fill="#ffa87d"></polygon><path d="M22.28,170.07l-10.57,6.09c-5,3.09-1.25,7.69,3.72,10.79l18-10.42Z" fill="#ffa87d"></path><path d="M187.52,288.66l1.55.91a22.94,22.94,0,0,0,22.74-.16l8.64-4.93-12.84-7.41Z" fill="#ffa87d"></path><path d="M375.11,180.36l-29.92,17.28,13.62,7.86,17.27-9.86C381.57,192.45,380.59,183.55,375.11,180.36Z" fill="#ffa87d"></path><polygon points="167.32 253.81 147.71 265.13 167.99 277.12 187.84 265.66 167.32 253.81" fill="#ffa87d"></polygon><polygon points="73.01 176.54 53.24 187.95 70.02 197.63 89.78 186.22 73.01 176.54" fill="#ffd636"></polygon><polygon points="109.54 197.63 89.78 209.04 108.79 220.02 128.55 208.61 109.54 197.63" fill="#ffd636"></polygon><polygon points="187.08 242.4 167.32 253.81 187.84 265.66 207.6 254.25 187.08 242.4" fill="#ffd636"></polygon><polygon points="53.24 165.13 42.06 158.68 22.28 170.07 33.48 176.54 53.24 165.13" fill="#ffd636"></polygon><polygon points="207.6 277.07 220.44 284.48 240.32 273.14 227.36 265.66 207.6 277.07" fill="#ffd636"></polygon><polygon points="148.31 220.02 128.55 231.43 147.56 242.4 167.32 230.99 148.31 220.02" fill="#ffd636"></polygon><polygon points="247.88 253.81 260.95 261.36 280.83 250.01 267.65 242.4 247.88 253.81" fill="#ffd636"></polygon><polygon points="188.6 196.76 168.83 208.17 187.84 219.14 207.6 207.73 188.6 196.76" fill="#ffd636"></polygon><polygon points="130.06 162.97 113.29 153.28 93.53 164.69 110.3 174.38 130.06 162.97" fill="#ffd636"></polygon><polygon points="207.6 230.55 228.12 242.4 247.88 230.99 227.36 219.14 207.6 230.55" fill="#ffd636"></polygon><polygon points="149.83 174.38 130.06 185.79 149.07 196.76 168.83 185.35 149.83 174.38" fill="#ffd636"></polygon><polygon points="93.53 141.87 82.38 135.44 62.6 146.84 73.76 153.28 93.53 141.87" fill="#ffd636"></polygon><polygon points="132.29 119.49 121.19 113.08 101.41 124.47 112.53 130.9 132.29 119.49" fill="#ffd636"></polygon><polygon points="226.61 196.76 246.37 185.35 227.36 174.38 207.6 185.79 226.61 196.76" fill="#ffd636"></polygon><polygon points="187.84 174.38 207.6 162.97 188.59 152 168.83 163.41 187.84 174.38" fill="#ffd636"></polygon><polygon points="246.37 208.17 266.89 220.02 286.65 208.61 266.13 196.76 246.37 208.17" fill="#ffd636"></polygon><polygon points="168.83 140.58 152.06 130.9 132.29 142.31 149.07 152 168.83 140.58" fill="#ffd636"></polygon><polygon points="286.65 231.43 299.94 239.1 319.81 227.75 306.42 220.02 286.65 231.43" fill="#ffd636"></polygon><polygon points="305.66 197.63 325.42 186.22 304.9 174.38 285.14 185.79 305.66 197.63" fill="#ffd636"></polygon><polygon points="226.61 152 246.37 140.58 227.36 129.61 207.6 141.02 226.61 152" fill="#ffd636"></polygon><polygon points="265.38 174.38 285.14 162.97 266.13 152 246.37 163.41 265.38 174.38" fill="#ffd636"></polygon><polygon points="171.06 97.11 159.99 90.71 140.21 102.11 151.3 108.52 171.06 97.11" fill="#ffd636"></polygon><polygon points="187.84 129.61 207.6 118.2 190.83 108.52 171.06 119.93 187.84 129.61" fill="#ffd636"></polygon><polygon points="325.42 209.04 338.93 216.84 358.8 205.5 345.18 197.63 325.42 209.04" fill="#ffd636"></polygon><polygon points="207.6 254.25 227.36 265.66 247.88 253.81 228.12 242.4 207.6 254.25" fill="#ffd636"></polygon><polygon points="187.84 265.66 167.99 277.12 187.52 288.66 207.6 277.07 187.84 265.66" fill="#ffd636"></polygon><path d="M345.18,197.63l29.92-17.28h0l-19.7-11.43-30,17.31Z" fill="#ffd636"></path><polygon points="286.65 208.61 306.42 220.02 325.42 209.04 305.66 197.63 286.65 208.61" fill="#ffd636"></polygon><polygon points="247.88 230.99 267.65 242.4 286.65 231.43 266.89 220.02 247.88 230.99" fill="#ffd636"></polygon><polygon points="187.84 265.66 207.6 277.07 227.36 265.66 207.6 254.25 187.84 265.66" fill="#ffa87d"></polygon><polygon points="228.12 242.4 247.88 253.81 267.65 242.4 247.88 230.99 228.12 242.4" fill="#ffa87d"></polygon><polygon points="266.89 220.02 286.65 231.43 306.42 220.02 286.65 208.61 266.89 220.02" fill="#ffa87d"></polygon><polygon points="305.66 197.63 325.42 209.04 345.18 197.63 325.42 186.22 305.66 197.63" fill="#ffa87d"></polygon><polygon points="207.6 207.73 227.36 219.14 246.37 208.17 226.61 196.76 207.6 207.73" fill="#ffd636"></polygon><polygon points="266.13 196.76 285.14 185.79 265.38 174.38 246.37 185.35 266.13 196.76" fill="#ffd636"></polygon><polygon points="187.84 219.14 167.32 230.99 187.08 242.4 207.6 230.55 187.84 219.14" fill="#ffd636"></polygon><polygon points="147.56 242.4 128.17 253.59 147.71 265.13 167.32 253.81 147.56 242.4" fill="#ffd636"></polygon><polygon points="304.9 174.38 334.93 157.04 315.22 145.6 285.14 162.97 304.9 174.38" fill="#ffd636"></polygon><polygon points="167.32 230.99 147.56 242.4 167.32 253.81 187.08 242.4 167.32 230.99" fill="#ffa87d"></polygon><polygon points="187.84 219.14 207.6 230.55 227.36 219.14 207.6 207.73 187.84 219.14" fill="#ffa87d"></polygon><polygon points="226.61 196.76 246.37 208.17 266.13 196.76 246.37 185.35 226.61 196.76" fill="#ffa87d"></polygon><polygon points="285.14 185.79 304.9 174.38 285.14 162.97 265.38 174.38 285.14 185.79" fill="#ffa87d"></polygon><polygon points="227.36 174.38 246.37 163.41 226.61 152 207.6 162.97 227.36 174.38" fill="#ffd636"></polygon><polygon points="187.84 174.38 168.83 185.35 188.6 196.76 207.6 185.79 187.84 174.38" fill="#ffd636"></polygon><polygon points="266.13 152 296.26 134.6 276.55 123.16 246.37 140.58 266.13 152" fill="#ffd636"></polygon><polygon points="108.79 220.02 89.86 230.95 109.39 242.49 128.55 231.43 108.79 220.02" fill="#ffd636"></polygon><polygon points="149.07 196.76 128.55 208.61 148.31 220.02 168.83 208.17 149.07 196.76" fill="#ffd636"></polygon><polygon points="128.55 208.61 108.79 220.02 128.55 231.43 148.31 220.02 128.55 208.61" fill="#ffa87d"></polygon><polygon points="168.83 185.35 149.07 196.76 168.83 208.17 188.6 196.76 168.83 185.35" fill="#ffa87d"></polygon><polygon points="207.6 185.79 227.36 174.38 207.6 162.97 187.84 174.38 207.6 185.79" fill="#ffa87d"></polygon><polygon points="246.37 163.41 266.13 152 246.37 140.58 226.61 152 246.37 163.41" fill="#ffa87d"></polygon><polygon points="110.3 174.38 89.78 186.22 109.54 197.63 130.06 185.79 110.3 174.38" fill="#ffd636"></polygon><polygon points="188.59 152 207.6 141.02 187.84 129.61 168.83 140.58 188.59 152" fill="#ffd636"></polygon><polygon points="70.02 197.63 51.54 208.3 71.08 219.84 89.78 209.04 70.02 197.63" fill="#ffd636"></polygon><polygon points="168.83 163.41 149.07 152 130.06 162.97 149.83 174.38 168.83 163.41" fill="#ffd636"></polygon><polygon points="227.36 129.61 257.6 112.16 237.88 100.72 207.6 118.2 227.36 129.61" fill="#ffd636"></polygon><polygon points="89.78 186.22 70.02 197.63 89.78 209.04 109.54 197.63 89.78 186.22" fill="#ffa87d"></polygon><polygon points="130.06 162.97 110.3 174.38 130.06 185.79 149.83 174.38 130.06 162.97" fill="#ffa87d"></polygon><polygon points="188.59 152 168.83 140.58 149.07 152 168.83 163.41 188.59 152" fill="#ffa87d"></polygon><polygon points="207.6 141.02 227.36 129.61 207.6 118.2 187.84 129.61 207.6 141.02" fill="#ffa87d"></polygon><polygon points="93.53 164.69 73.76 153.28 53.24 165.13 73.01 176.54 93.53 164.69" fill="#ffd636"></polygon><polygon points="190.83 108.52 221.15 91.01 201.44 79.57 171.06 97.11 190.83 108.52" fill="#ffd636"></polygon><path d="M33.48,176.54,15.43,187q.56.35,1.13.67L35,198.5l18.28-10.55Z" fill="#ffd636"></path><polygon points="132.29 142.31 112.53 130.9 93.53 141.87 113.29 153.28 132.29 142.31" fill="#ffd636"></polygon><polygon points="171.06 119.93 151.3 108.52 132.29 119.49 152.06 130.9 171.06 119.93" fill="#ffd636"></polygon><polygon points="53.24 165.13 33.48 176.54 53.24 187.95 73.01 176.54 53.24 165.13" fill="#ffa87d"></polygon><polygon points="113.29 153.28 93.53 141.87 73.76 153.28 93.53 164.69 113.29 153.28" fill="#ffa87d"></polygon><polygon points="152.06 130.9 132.29 119.49 112.53 130.9 132.29 142.31 152.06 130.9" fill="#ffa87d"></polygon><polygon points="190.83 108.52 171.06 97.11 151.3 108.52 171.06 119.93 190.83 108.52" fill="#ffa87d"></polygon><polyline points="129.63 158.32 129.63 193.98 126.99 193.98 126.42 157.4" fill="#895851"></polyline><polyline points="114.62 144.6 109.33 183.38 111.98 183.38 117.5 146.04" fill="#895851"></polyline><path d="M113.18,107.74c.7,2,4.65,31.7,4.65,31.7l4-1.33-5.18-30.53" fill="#895851"></path><path d="M124.2,137.18s-10.65,4.09-9.58,8.11,9.57,13.87,15,13,12.09-5.59,12.09-5.59" fill="#a9cbf8"></path><path d="M124.2,132.29s-10.65,4.09-9.58,8.11,9.57,13.87,15,13,12.09-5.59,12.09-5.59" fill="#cbe3ff"></path><path d="M120,94.94s-10.29,2.57-11.33,8.49-1.34,16.84,13.26,12.6,7.71-15.21,7.71-15.21" fill="#cbe3ff"></path><path d="M167.38,177.33s2.46,8.07,3,8.89,8.61,6.15,8.48,7.79-3.18,2.32-5.08,2.19-12.83-4.7-13.52-6-.68-12.83-.68-12.83Z" fill="#433434"></path><path d="M154.41,186.77s2.46,8.07,3,8.89,8.61,6.15,8.48,7.79-3.18,2.32-5.08,2.19-12.83-4.7-13.52-6-.68-12.83-.68-12.83Z" fill="#433434"></path><path d="M144.34,124.14S165.4,138.59,168.12,146s4.5,36.35,4.5,36.35-7.37,4.58-15.94,1.88l-6.45-32.85s-15.31-6.54-18-14.72.94-23.43.94-23.43" fill="#3c6071"></path><path d="M121.37,121.65s-3.63,15.26-.94,23.43,18,14.72,18,14.72l6.45,32.85c8.57,2.69,15.94-1.88,15.94-1.88s-1.78-29-4.5-36.35-23.77-21.81-23.77-21.81,3.82-7.7.84-11S121.37,121.65,121.37,121.65Z" fill="#3c6071"></path><path d="M139.27,135.52c3.79,3.78,7.85,7.43,11.38,11.46,3.06,3.5,4.27,7.95,5.46,12.35,2.77,10.26,4,20.85,5.23,31.38.07.64-.93.63-1,0-1.18-10.13-2.38-20.31-5-30.2-1.26-4.85-2.53-9.67-6-13.44s-7.21-7.24-10.82-10.84A.5.5,0,0,1,139.27,135.52Z" fill="#5c2d1d"></path><path d="M165.08,113.41s4.57,0,5.18,0,5.46-2.15,5.71-1.4c.54,1.62-3.42,2.25-3.42,2.25s5.81,1.12,6.58,2.79-1.43,2.46-2.27,2.88-6.6-.86-6.6-.86L163,117" fill="#ffb7a2"></path><path d="M168.56,111.76c-3.79-.52-8.61-1.38-11.55-2.67-4.09-1.79-11.37-11.33-14.69-15.88-.59-.29-1.2-.55-1.81-.79l-.87,17.36s6.41,5,11,8.48c3.1,2.36,11.71,3.15,17,3.42A54.41,54.41,0,0,0,168.56,111.76Z" fill="#d9e021"></path><path d="M141.2,124.55c.59-5.63,1.58-15.31,1.48-15.5-3.1-6.17-23.26-5.66-24.24-2.57-.71,2.24.2,12.8.75,18.49C126.16,127.78,134.06,126.81,141.2,124.55Z" fill="#d9e021"></path><path d="M115.11,156.48a49.37,49.37,0,0,1-3.51-9.94,86.18,86.18,0,0,1-1.42-11.33l6.57,3.28v3.9s3.16,6.21,2.29,6.75-2.72-2-2.72-2a27.42,27.42,0,0,0,0,5.34C116.63,154.16,116.82,156.16,115.11,156.48Z" fill="#ffb7a2"></path><path d="M106.22,126.85c1.32-16.22,8.94-26.4,11-30.1,1.53-2.79,5.49-5,7.65-5.76.93-.17,1.86-.31,2.81-.39l2.23-.1A28,28,0,0,1,141.95,93a50.79,50.79,0,0,1,1.16,11.08c-1.63,5.17-3.18,10.36-4.77,15.54-6.27-.35-18.58-4-18.58-4l-3.46,9.25s1.4,9.17,1.89,14c-2.3,1-5.52.19-8,.83-1.15.3-2,.25-3.12.54C106.74,136.29,106,129.13,106.22,126.85Z" fill="#d9e021"></path><path d="M141.71,79.82c.32.15-.52,14.81-6.45,13.7s-6.1-6-6-7.22,2.69-4.45,3.55-5.67S140.34,79.17,141.71,79.82Z" fill="#ffb7a2"></path><path d="M141.51,83.63l.2-3.8s-2.9-1-3.76.23,0,5.3-2.47,4.14-3.64-1.34-3.68.58.28,2.85-1.09,3-.56,2.44-.56,2.44,1.11,1-3.13-.92S125.35,76,128.5,75.39c5-1,13.66-.8,14.58,2.83A5,5,0,0,1,141.51,83.63Z" fill="#42342d"></path><path d="M143.25,79.32c1.36,1.14.17,5.64-.84,6.65s.55,2.34.42,3.9-3.11,2-3.11,2a2.56,2.56,0,0,0,1.57-4.08c-1.29-2,.56-1.61.26-5.26A2.59,2.59,0,0,0,138,80.05s.18-2.49,2.24-2.27A4.56,4.56,0,0,1,143.25,79.32Z" fill="#42342d"></path><path d="M129.84,78.27s-1-6.16-6.75-5.61-5.48,5.18-4,6.93,7.47,1.94,7.47,1.94" fill="#42342d"></path><path d="M141.74,103.1c0-.64,1-.64,1,0l-1.35,26.52c0,.64-1,.64-1,0Z" fill="#3c6071"></path><polygon points="125.58 105.25 122.29 125.96 119.19 124.98 118.58 117.86 125.58 105.25" fill="#adad05"></polygon><path d="M116.56,122.08c.82-2.48,2.39-4.7,3.56-7,1.66-3.29,3.08-6.68,4.5-10.08.24-.59,1.21-.33,1,.27-2.14,5.13-4.59,10-7.11,15-2.88,5.68-.45,12.84.45,18.83.09.63-.87.9-1,.27q-.75-5-1.5-9.93C116.1,126.92,115.76,124.5,116.56,122.08Z" fill="#3c6071"></path><path d="M203.45,206.7c-15.48-3.32-32.51-3.66-47.08,3.18l-37.08,22.74c5.19,4.22,43,23.82,48.68,27.28l73-38.15A116.24,116.24,0,0,0,203.45,206.7Z" fill="url(#linear-gradient)"></path><polyline points="293.55 193.26 229.71 230.12 203.98 206.1 243.39 184.76 263 173.88 293.55 193.26" fill="url(#linear-gradient-2)"></polyline><polyline points="273.25 168.21 273.25 203.87 275.89 203.87 276.46 167.28" fill="#895851"></polyline><polyline points="288.26 154.49 293.55 193.26 290.91 193.26 285.38 155.93" fill="#895851"></polyline><path d="M235,181.6s-2.46,8.07-3,8.89-8.61,6.15-8.48,7.79,3.18,2.32,5.08,2.19,12.83-4.7,13.52-6,.68-12.83.68-12.83Z" fill="#5c2d1d"></path><path d="M247.92,191s-2.46,8.07-3,8.89-8.61,6.15-8.48,7.79,3.18,2.32,5.08,2.19,12.83-4.7,13.52-6,.68-12.83.68-12.83Z" fill="#5c2d1d"></path><path d="M289.7,117.63c-.7,2-4.65,31.7-4.65,31.7l-4-1.33,5.18-30.53" fill="#895851"></path><polyline points="288.26 154.49 288.34 149.7 284.1 151.15 285.38 155.93" fill="#a9cbf8"></polyline><path d="M278.68,147.07s10.65,4.09,9.58,8.11-9.57,13.87-15,13-12.09-5.59-12.09-5.59" fill="#a9cbf8"></path><path d="M278.68,142.17s10.65,4.09,9.58,8.11-9.57,13.87-15,13-12.09-5.59-12.09-5.59" fill="#cbe3ff"></path><path d="M282.9,104.83s10.29,2.57,11.33,8.49,1.34,16.84-13.26,12.6-7.71-15.21-7.71-15.21" fill="#cbe3ff"></path><path d="M258,128.42s-21.06,14.45-23.77,21.81-4.5,36.35-4.5,36.35,7.37,4.58,15.94,1.88l6.45-32.85s15.31-6.54,18-14.72-.94-23.43-.94-23.43" fill="#895851"></path><path d="M269.79,136.87S248.73,151.32,246,158.68s-4.5,36.35-4.5,36.35,7.37,4.58,15.94,1.88l6.45-32.85s15.31-6.54,18-14.72-.94-23.43-.94-23.43" fill="#895851"></path><path d="M278.15,137.18c3.59-8.74,6.84-34.09,4.67-36.88-2.54-3.27-17-8.61-17-8.61a10.75,10.75,0,0,0-9.87,2.25c-3.52,3-1,26.14,0,37.76C262.07,137.38,269.32,138.77,278.15,137.18Z" fill="#8cc63f"></path><path d="M279.54,81.62c-.73-3.22-3.29-4.35-6.18-4.41a6.21,6.21,0,0,0-1.88-1.41,6.72,6.72,0,0,0-7.08.72,4.56,4.56,0,0,0-2.28-.19c-2.27.43-3,2.6-2.93,4.65,0,.08,0,.16,0,.24-.52,3.49,2.53,5.65,2.53,5.65l9.65,7.7a8,8,0,0,0,3.45-2.08,4.26,4.26,0,0,0,.75-1.33,1.68,1.68,0,0,0,.26-.17C278.52,88.78,280.34,85.15,279.54,81.62Z" fill="#895851"></path><path d="M262.05,84.07c0,1.21-.38,12.58,4.76,12.72s7-7.08,7-7.08-4.22-2.17-4.22-3.92.34-2.45-1.76-3.37S262,82.06,262.05,84.07Z" fill="#ffe0ce"></path><path d="M259.15,92S243,98.82,240.47,110.58c-3.5,16.3,17.56-.78,17.56-.78" fill="#8cc63f"></path><path d="M256.41,96s-1.95,6.17,4.34,6.8,5.4-6,5.4-6" fill="#e4f1ff"></path><ellipse cx="261.28" cy="96.36" rx="2.82" ry="4.89" transform="translate(143.66 348.78) rotate(-85.26)" fill="#350011"></ellipse><path d="M263.9,104s.46,3.7-1.69,4.38a17.69,17.69,0,0,0-4.76,2.89l-2,15.71L254.34,112l1.38-6.66Z" fill="#527717"></path><path d="M248,104s6.24-8.67,7.18-8.06c2.06,1.36-.1,4.7-.1,4.7s8.65.17,8.87,3.36-11.06,1.91-11.06,1.91l-3,2.13" fill="#ffd8c6"></path><path d="M248.95,100.19c-1.3-.3-20.41,14.41-12.43,20,7.8,5.45,20.93-11.76,20.93-11.76S254.5,101.47,248.95,100.19Z" fill="#8cc63f"></path><path d="M263.06,139.79c-3.79,3.78-7.85,7.43-11.38,11.46-3.06,3.5-4.27,7.95-5.46,12.35-2.77,10.26-4,20.85-5.23,31.38-.07.64.93.63,1,0,1.18-10.13,2.38-20.31,5-30.2,1.26-4.85,2.53-9.67,6-13.44s7.21-7.24,10.82-10.84A.5.5,0,0,0,263.06,139.79Z" fill="#5c2d1d"></path><path d="M255,138.61s-10.22,2.45-9.88,3.38,3.69,0,3.69,0-6.85,2.86-5.45,5.7c.91,1.84,7.41.59,9.17,0s6.58-5.28,6.58-5.28Z" fill="#ffd8c6"></path><path d="M273.25,110.71s-2.2,15.9-3.87,18-19,9.77-19,9.77,5.65,2.54,5.52,8.54c0,0,21.8-5.44,24-10.45s8.51-30.2,2.94-36.32S273.25,110.71,273.25,110.71Z" fill="#8cc63f"></path><path d="M272.14,114.08a65.11,65.11,0,0,1-1.67,8.85c-.73,2.77-1.25,6.1-4,7.52-5.13,2.67-10.75,4.65-16.06,6.94-.59.25-.08,1.12.5.86l10-4.31c2.4-1,6-1.85,7.85-3.82,1.6-1.72,2.09-4.76,2.66-6.93a67.3,67.3,0,0,0,1.71-9.12C273.22,113.44,272.22,113.45,272.14,114.08Z" fill="#527717"></path><path d="M38.28,199.4l28.9-16.6L47,174.32,21.87,188A145.55,145.55,0,0,0,38.28,199.4Z" fill="url(#linear-gradient-3)"></path><path d="M43.77,154.67s-2.9,24.92,10.28,29.74,20.24-7.72,20.44-29.74" fill="#433434"></path><ellipse cx="59.14" cy="154.67" rx="15.36" ry="8.88" fill="#f2696a"></ellipse><path d="M63.07,134.92s-6-8.71-3.4-14.72c0,0,2.17-3.87,5.24-4.48,0,0-.31,8.25,2.77,7.2s0-8.64,0-8.64,3.23-4.37,6.76-4.23,0,7.72,2.46,6.46.15-7.71,2.92-8.48a58.06,58.06,0,0,1,7.68-1.23s2.61,7.53,0,8.6-6.45,1.44-4.61,3.1,7.07-.25,7.07-.25.33,4.24-1.45,6.07-12.22-2.22-10.38,1.42,8.76,1.82,8.76,1.82-3.53,5.05-7.68,7.35S63.07,134.92,63.07,134.92Z" fill="#8ccc00"></path><path d="M64.48,156.71s-4.35-4.3-3.5-8c0,0,.82-2.43,2.5-3.1,0,0,.71,4.72,2.34,3.79s-.92-4.9-.92-4.9,1.37-2.83,3.39-3.12.82,4.38,2.09,3.41-.74-4.39.75-5.12a33.54,33.54,0,0,1,4.23-1.52s2.29,4,.92,4.88-3.51,1.51-2.29,2.25,4-.89,4-.89.64,2.37-.18,3.6-7.18,0-5.74,1.91,5.17.1,5.17.1a16.35,16.35,0,0,1-3.58,5C71.53,156.74,64.48,156.71,64.48,156.71Z" fill="#8ccc00"></path><path d="M48.47,147.42s-10.58.41-14.24-5c0,0-2.1-3.91-1-6.83,0,0,6.8,4.69,7.56,1.54s-7.28-4.64-7.28-4.64-2-5.07.06-8,6.51,4.15,6.77,1.4-6.42-4.27-5.58-7a58.06,58.06,0,0,1,3.09-7.14s7.75,1.84,7.26,4.62-2.25,6.22.14,5.55,3.59-6.09,3.59-6.09,3.75,2,4.34,4.48-8.44,9.12-4.38,9.52,6.24-6.41,6.24-6.41,2.36,5.69,2.08,10.43S48.47,147.42,48.47,147.42Z" fill="#8ccc00"></path><path d="M85.2,110.14q-1.68,1.42-3.38,2.9c.12-1.2.26-2.39.45-3.58.1-.63-.86-.9-1-.27q-.38,2.39-.58,4.8c-3,2.6-5.91,5.32-8.65,8.21a35.69,35.69,0,0,1-.18-6.11c0-.64-1-.64-1,0a36.71,36.71,0,0,0,.3,7.06,69.17,69.17,0,0,0-4.92,5.94,19.81,19.81,0,0,1-3.43-8c-.12-.63-1.08-.36-1,.27a20.49,20.49,0,0,0,3.69,8.47.51.51,0,0,0,.1.09c-4.4,6.23-7.42,13.22-7.68,21.32,0,.64,1,.64,1,0,.25-7.8,3.14-14.56,7.36-20.59a38.56,38.56,0,0,0,12.39,1.21c.64,0,.64-1,0-1A37.78,37.78,0,0,1,67,129.78a72.53,72.53,0,0,1,7-8.09l.09,0c2.33.21,4.67.41,7,.5a8.55,8.55,0,0,0,4.35-.5c.58-.29.07-1.15-.5-.86-1.62.81-3.87.38-5.6.28-1.48-.09-3-.21-4.44-.34,3.57-3.53,7.38-6.81,11.07-9.94C86.4,110.43,85.69,109.73,85.2,110.14Z" fill="#06577a"></path><path d="M54.22,129.61a.5.5,0,0,0-1-.27,17.71,17.71,0,0,1-6.42,9.22q-1.7-4.72-3.11-9.53a29.87,29.87,0,0,0,5.87-8.28c.28-.58-.59-1.09-.86-.5a29.1,29.1,0,0,1-5.33,7.67c-1-3.68-2-7.39-2.74-11.15-.13-.63-1.09-.36-1,.27q1.59,7.7,3.94,15.2a23.45,23.45,0,0,1-5.46-1.78c-.58-.27-1.09.59-.5.86a24.53,24.53,0,0,0,6.31,2h0c1.05,3.29,2.24,6.54,3.5,9.76a24.18,24.18,0,0,1-8.7-1.92c-.59-.25-1.1.61-.5.86a25.51,25.51,0,0,0,9.59,2.07q2.41,6,5.3,11.83c.29.58,1.15.07.86-.5a156.06,156.06,0,0,1-6.85-15.87h0A18.81,18.81,0,0,0,54.22,129.61Z" fill="#06577a"></path><path d="M72.33,142.53l-2.75,4.61a8.62,8.62,0,0,1-.87-1.44c-.28-.58-1.14-.07-.86.5A9.53,9.53,0,0,0,69,148l0,0-3,5a2,2,0,0,1-.61-1.2c-.08-.63-1.08-.64-1,0a3.15,3.15,0,0,0,1.1,2.06l-3.73,6.26a.5.5,0,0,0,.86.5l4.92-8.25a7.47,7.47,0,0,0,2.43-.37c.61-.2.35-1.17-.27-1a6.65,6.65,0,0,1-1.55.29l5-8.36A.5.5,0,0,0,72.33,142.53Z" fill="#06577a"></path><rect x="151.95" y="147.96" width="6.42" height="74.46" rx="2.26" ry="2.26" transform="translate(50.78 -32.7) rotate(14.36)" fill="#d37e6a"></rect><rect x="188.76" y="168.74" width="6.42" height="74.46" rx="2.26" ry="2.26" fill="#d37e6a"></rect><rect x="227.87" y="148.26" width="6.42" height="74.46" rx="2.26" ry="2.26" transform="translate(-35.36 55.81) rotate(-12.8)" fill="#d37e6a"></rect><ellipse cx="192.59" cy="157.28" rx="45.85" ry="25.87" fill="#ce4823"></ellipse><ellipse cx="192.59" cy="152.83" rx="45.85" ry="25.87" fill="#d66449"></ellipse><path d="M331.66,190.54l-38.14,21.52s4.47,8.87,17.36,14.29l44.52-31.88" fill="url(#linear-gradient-4)"></path><path d="M334.49,181.56a3,3,0,0,1-1.23-.27l-.19,1.25,20,.51v-1.49Z" fill="#ef8a3f"></path><path d="M333.25,181.34l-.18,1.2,11.05,6.38v-1.55C340.39,185.56,336.8,183.49,333.25,181.34Z" fill="#ef8a3f"></path><path d="M344.41,95a3.19,3.19,0,0,1-1.92-.28L329.8,192.61c.77.47,1.57.89,2.35,1.33L345,95Z" fill="#ef8a3f"></path><path d="M347.33,94.92a6.38,6.38,0,0,1-1.39,0c-.37,0-.75,0-1.12.06l8.57,100.34a20.33,20.33,0,0,1,2-.85l.34-.17.06,0Z" fill="#ef8a3f"></path><path d="M345.94,94.93a11.51,11.51,0,0,0-1.53.11,3.81,3.81,0,0,1-.6,0l-.84,106h0a2.61,2.61,0,0,1,1.34-.11H345l.42,0,.84-106Z" fill="#ef8a3f"></path><path d="M332.1,96.62v21.92s25.22.75,25.22,0V96.62" fill="#433434"></path><ellipse cx="344.71" cy="96.58" rx="12.61" ry="5.84" fill="#433434"></ellipse><ellipse cx="344.71" cy="96.58" rx="12.61" ry="5.84" fill="#3c6071" opacity="0.49"></ellipse><ellipse cx="344.71" cy="118.87" rx="12.61" ry="5.84" fill="#433434"></ellipse><path d="M194.13,169.69c0-.45,0-.89-.08-1.33l-5.66-2.88c-2.57,1.39-7.71,4.45-10.14,6.08l6.25,4.7,10.32-6.36c.26-.37-.79.3-.66-.13A.15.15,0,0,1,194.13,169.69Z" fill="url(#linear-gradient-5)" style="mix-blend-mode: multiply;"></path><path d="M188.36,152s-2.94-8.66-3.67-9.14-1.84.39-1.46.89,3.91,9.57,3.91,9.57" fill="#cccece"></path><rect x="187.15" y="155.7" width="7.11" height="5.21" fill="#fc93b4"></rect><ellipse cx="190.95" cy="168.27" rx="4.75" ry="2.8" fill="#64becc"></ellipse><ellipse cx="191.08" cy="167.7" rx="4.75" ry="2.8" fill="#8bd7e8"></ellipse><path d="M190,163.16v3.68a1.7,1.7,0,0,0,2,0v-3.68" fill="#64becc"></path><ellipse cx="194.71" cy="155.14" rx="4.18" ry="3.91" fill="#f8c691"></ellipse><ellipse cx="187.41" cy="155.51" rx="4.18" ry="3.91" fill="#e07d46"></ellipse><ellipse cx="191.08" cy="152.02" rx="4.18" ry="3.91" fill="#592a1a"></ellipse><path d="M183.24,155.93s1.86,3.43,8,3.43,7.44-3.43,7.44-3.43-.33,7.52-7.32,7.52S183.24,158,183.24,155.93Z" fill="#8bd7e8"></path><path d="M166.42,148.59c-3.36,1.88-8.83,5.15-11.55,7l7.71,5.8,8.44-5.2A23.59,23.59,0,0,0,166.42,148.59Z" fill="url(#linear-gradient-6)" style="mix-blend-mode: multiply;"></path><path d="M160,127.64s-.31.14-.18.7.44.54.64.49S160.54,127.61,160,127.64Z" fill="#968d7e"></path><path d="M176.06,139.25l-2.14,14.95a6.15,6.15,0,0,1-4.41,1.92c-2.78,0-4.06-1.57-4.13-2.21s-1.85-14.66-1.85-14.66Z" fill="#433434"></path><path d="M173.17,139.26h2.89l-2.14,14.95a6.2,6.2,0,0,1-2.77,1.68A126.3,126.3,0,0,0,173.17,139.26Z" opacity="0.33"></path><polyline points="176.35 137.47 176.35 138.56 163.25 138.75 163.25 137.47" fill="#ebeae8"></polyline><ellipse cx="169.8" cy="138.56" rx="6.55" ry="4.35" fill="#ebeae8"></ellipse><ellipse cx="169.8" cy="137.47" rx="6.55" ry="4.35" fill="#fffff2"></ellipse><ellipse cx="169.8" cy="137.24" rx="5.09" ry="3.03" fill="#ebeae8"></ellipse><ellipse cx="169.8" cy="137.24" rx="4.04" ry="2.4" fill="#fffff2"></ellipse><path d="M168.65,137.4l.82-.32-.64-.33c-.1,0,0-.21.07-.16l.79.4,1-.41a.09.09,0,0,1,.07.16l-.86.36,1,.52c.1.05,0,.21-.07.16l-1.11-.6-1,.38A.09.09,0,0,1,168.65,137.4Z" fill="#606060"></path><path d="M160,128l6.2-1.24a2.5,2.5,0,0,1,2.18,1.75l1.79,8.26c.2.1-1.16.46-1.16.46s-1.42-7.59-1.81-8.35a1.64,1.64,0,0,0-1.15-.86s-4.06.82-5.59,1.17A1.27,1.27,0,0,0,160,128Z" fill="#ddd3c3"></path><path d="M209.3,141c-3.36,1.88-15.47,8.64-18.19,10.47l23.51,9.61,16-8.26C229.58,150,211.29,143.25,209.3,141Z" fill="url(#linear-gradient-7)" style="mix-blend-mode: multiply;"></path><ellipse cx="218.91" cy="147.88" rx="15.04" ry="7.74" fill="#433434"></ellipse><ellipse cx="218.91" cy="147.88" rx="15.04" ry="7.74" fill="#093e3e" opacity="0.29"></ellipse><ellipse cx="218.91" cy="146.97" rx="15.04" ry="7.74" fill="#433434"></ellipse><ellipse cx="219.15" cy="146.97" rx="10.18" ry="4.8" fill="#093e3e" opacity="0.29"></ellipse><path d="M224.71,143.79l-.16-.43,1,0a8.63,8.63,0,0,0,.84,1.68,20,20,0,0,0,2.21,3.56,7.79,7.79,0,0,0,.56.72c.47,1,1.79,1.83.36,1.87a3.46,3.46,0,0,1-1.86-.56q-.69-1.44-1.33-2.91C225.8,146.37,225.26,145.08,224.71,143.79Z" fill="#99ce45"></path><path d="M223.7,143.4l.44,0,.2.45L227,151.1c-.1.85.28,2.25-.63,1.64s-.81-1.52-1.11-1.74q-.3-1-.53-2.06C224.47,147.08,224.09,145.24,223.7,143.4Z" fill="#99ce45"></path><path d="M222.93,143.74c0-.1,0-.2,0-.3l.41,0a.17.17,0,0,0-.07.16l1.16,7.91c-.49.7-.39,1.44-.82.33a6.1,6.1,0,0,0-.59-1.5v-6.44A.18.18,0,0,0,222.93,143.74Z" fill="#99ce45"></path><path d="M226,143.3h.17a.15.15,0,0,0,0,.23,33.64,33.64,0,0,0,3.58,2.32,1.23,1.23,0,0,0,.15.3c.65,1,1.16,1.31.5,1.9-.44.4-1.07.15-1.35.29a29.64,29.64,0,0,1-3-4.74Z" fill="#99ce45"></path><path d="M227.12,143.24s2.94-.3,3.3,1c.17.65-.09.87-.32,1-1.2-.67-2.39-1.36-3.58-2Z" fill="#99ce45"></path><path d="M222.25,143.56l0-.09h.07l-.06.13Z" fill="#99ce45"></path><path d="M222.58,143.85c0,.14,0,.27,0,.41a25.35,25.35,0,0,1-1.33,6.39c-.24,0-.32-.22-.33-.71,0-.87.92-2.08.22-2.26.3-.65.45-1.37.69-2S222.31,144.44,222.58,143.85Z" fill="#99ce45"></path><path d="M221.91,150.36a.17.17,0,0,0,0,.12l-.14.06.13-.31Z" fill="#99ce45"></path><path d="M226.22,143.52a.15.15,0,0,1,0-.23l.34,0c1.19.68,2.38,1.37,3.58,2-.19.13-.37.24-.29.53A33.64,33.64,0,0,1,226.22,143.52Z" fill="#88b72c"></path><path d="M226.35,145a8.63,8.63,0,0,1-.84-1.68l.5,0,.12.31a29.64,29.64,0,0,0,3,4.74c-.14.07-.19.24-.09.63a1.83,1.83,0,0,0,.11.31,7.79,7.79,0,0,1-.56-.72A20,20,0,0,1,226.35,145Z" fill="#88b72c"></path><path d="M224.14,143.38l.41,0,.16.43c.55,1.29,1.09,2.58,1.58,3.89q.64,1.47,1.33,2.91c-.25-.12-.41-.14-.55.15a1.11,1.11,0,0,0-.09.36l-2.63-7.26Z" fill="#88b72c"></path><path d="M223.32,143.42l.38,0c.39,1.84.77,3.67,1,5.53q.24,1,.53,2.06c-.11-.08-.26-.06-.49.14a1.91,1.91,0,0,0-.32.36l-1.16-7.91A.17.17,0,0,1,223.32,143.42Z" fill="#88b72c"></path><path d="M222.17,143.47h.12l0,.09,0,0,.06-.13.56,0c0,.1,0,.2,0,.3a.18.18,0,0,1,.07.15v6.44c-.15-.14-.37-.14-.78,0l-.29.12a.17.17,0,0,1,0-.12v-.13l-.13.31a1.36,1.36,0,0,1-.52.12,25.35,25.35,0,0,0,1.33-6.39c0-.14,0-.27,0-.41-.27.59-.51,1.18-.72,1.79s-.39,1.4-.69,2h0C220.36,147.53,222.17,143.47,222.17,143.47Z" fill="#88b72c"></path><polygon points="212 148.22 212 146.69 225.89 144.8 227.02 145.17 229.71 145.79 229.71 147.13 228.61 147.01 226.26 146.85 217.85 147.14 212 148.22" fill="#7f3604"></polygon><path d="M222.45,148.9a10.06,10.06,0,0,1,1.62,0c1.58.09,3.3.6,4.72-.38,2.81-1.94-1.54-4.24-3.1-4.76a15.8,15.8,0,0,0-6.85-.66,12.65,12.65,0,0,0-2.07.43c-5.36,1.61-6,5.59-3,6.66,1.75.63,3.56.09,5.25-.46A16.22,16.22,0,0,1,222.45,148.9Z" fill="#7f3604"></path><path d="M222.45,147.76a10.06,10.06,0,0,1,1.62,0c1.58.09,3.3.6,4.72-.38,2.81-1.94-1.54-4.24-3.1-4.76a15.8,15.8,0,0,0-6.85-.66,12.65,12.65,0,0,0-2.07.43c-5.36,1.61-6,5.59-3,6.66,1.75.63,3.56.09,5.25-.46A16.22,16.22,0,0,1,222.45,147.76Z" fill="#934715"></path><path d="M227.4,146.47l-.94-2.69c-.12-.35-.69-.2-.57.16l.94,2.69C227,147,227.52,146.83,227.4,146.47Z" fill="#7f3604"></path><path d="M225.05,146.48q-.58-1.65-1.28-3.24c-.15-.34-.66,0-.51.3q.67,1.53,1.23,3.1C224.61,147,225.18,146.84,225.05,146.48Z" fill="#7f3604"></path><path d="M222.66,146.61q-.79-2.16-1.47-4.35c-.11-.36-.68-.21-.57.16q.68,2.2,1.47,4.35C222.22,147.12,222.79,147,222.66,146.61Z" fill="#7f3604"></path><path d="M220.31,146.81A26.79,26.79,0,0,1,219,142.7c-.09-.37-.65-.21-.57.16a26.79,26.79,0,0,0,1.35,4.11C219.89,147.31,220.45,147.16,220.31,146.81Z" fill="#7f3604"></path><path d="M218.46,146.65a29.42,29.42,0,0,1-1.14-3.35.29.29,0,0,0-.57.16,29.42,29.42,0,0,0,1.14,3.35C218,147.15,218.6,147,218.46,146.65Z" fill="#7f3604"></path><path d="M216.86,147.59q-.78-1.67-1.44-3.4c-.13-.35-.7-.2-.57.16q.69,1.8,1.5,3.54C216.51,148.23,217,147.93,216.86,147.59Z" fill="#7f3604"></path><path d="M214.8,147.23a12.09,12.09,0,0,1-.6-1.52c-.11-.36-.68-.21-.57.16a13.23,13.23,0,0,0,.66,1.66C214.46,147.87,215,147.57,214.8,147.23Z" fill="#7f3604"></path><path d="M189.31,132.38c-4,2.25-9.74,5.71-12.71,7.71l9.07,6.82,14.45-8.9C196.44,136.28,192.81,134.47,189.31,132.38Z" fill="url(#linear-gradient-8)" style="mix-blend-mode: multiply;"></path><path d="M188,121.69c-.34.16-.45.76-.56,1.07-.18.52-.39,1-.59,1.54a67.74,67.74,0,0,0-3.65,11.33c-.18.89-.4,1.64.34,2.32,1.33,1.23,3.4,1.68,5.14,2a17.44,17.44,0,0,0,10.26-1.3,2.4,2.4,0,0,0,1.26-2.94c-1.42-4.28-4.79-14.23-5.41-14.31A8.67,8.67,0,0,0,188,121.69Z" fill="#433434"></path><ellipse cx="191.48" cy="122.02" rx="3.8" ry="1.38" fill="#ce4823"></ellipse><path d="M189.75,121.74a23.73,23.73,0,0,0-1.37-3.05l.06,0c.88-.33.67-1.9.51-2.6a.29.29,0,0,0-.53-.07,6.23,6.23,0,0,0-.64,1.64l-.32-.52v0c.08-.23.16-.46.23-.69a3,3,0,0,0,.09-.32,5.8,5.8,0,0,0,.23-2,.34.34,0,0,0,0-.14.31.31,0,0,0-.34-.16c-.42.08-.62.68-.72,1a5.22,5.22,0,0,0-.18,1.22q-.39-.55-.82-1.08l0,0c.27-.81.71-2.08.12-2.85a.28.28,0,0,0-.28-.07c-.4.1-.49.51-.51.87a7.63,7.63,0,0,0,.07,1.39q-.63-.72-1.31-1.39c-.27-.26-.67.15-.41.41s.46.46.68.7c-.62-.16-1.22-.16-1.42.36-.44,1.16,1.89,1,2.55.93l.48.61a1.09,1.09,0,0,0-.61.12.62.62,0,0,0-.14,1.08,1.34,1.34,0,0,0,.79.13h.9c.15.24.3.47.45.72a1.48,1.48,0,0,0-1.15.08.62.62,0,0,0-.08,1c.44.37,1.27.18,1.78.12l.11,0a22.83,22.83,0,0,1,1.23,2.78C189.32,122.24,189.88,122.09,189.75,121.74Z" fill="#1a7a23"></path><path d="M184.29,113.41s-.25-3-2.72-3C181.57,110.36,180.86,113.21,184.29,113.41Z" fill="#1a7a23"></path><path d="M192.73,121.65a25.17,25.17,0,0,1,1.45-3.24l-.07,0c-.94-.35-.71-2-.54-2.75a.31.31,0,0,1,.56-.07,6.6,6.6,0,0,1,.68,1.74l.34-.55,0,0c-.08-.24-.17-.49-.24-.73a3.2,3.2,0,0,1-.1-.34,6.15,6.15,0,0,1-.24-2.11.36.36,0,0,1,0-.15.32.32,0,0,1,.36-.17c.45.09.65.72.77,1.1a5.53,5.53,0,0,1,.19,1.29q.42-.58.87-1.14l0,0c-.29-.86-.75-2.21-.12-3a.3.3,0,0,1,.3-.08c.42.1.52.55.54.93a8.09,8.09,0,0,1-.08,1.47q.66-.76,1.39-1.47c.28-.27.71.16.43.43s-.49.49-.72.74c.66-.17,1.3-.17,1.51.38.46,1.23-2,1.07-2.7,1l-.51.65a1.15,1.15,0,0,1,.64.13.66.66,0,0,1,.15,1.15,1.42,1.42,0,0,1-.84.14h-1c-.16.25-.32.5-.47.76a1.57,1.57,0,0,1,1.22.09.65.65,0,0,1,.08,1.07c-.47.39-1.35.19-1.89.13l-.12,0a24.21,24.21,0,0,0-1.31,2.94C193.18,122.18,192.59,122,192.73,121.65Z" fill="#1a7a23"></path><path d="M198.51,112.81s.26-3.18,2.88-3.23C201.39,109.58,202.15,112.61,198.51,112.81Z" fill="#1a7a23"></path><path d="M191.14,121.38a30,30,0,0,0,.45-4.2l.08,0c1.17.2,1.94-1.65,2.21-2.5a.37.37,0,0,0-.53-.41,7.86,7.86,0,0,0-1.74,1.39q0-.38,0-.77l0,0,.69-.61a3.81,3.81,0,0,0,.3-.29,7.32,7.32,0,0,0,1.52-2,.43.43,0,0,0,0-.18.39.39,0,0,0-.27-.4c-.51-.18-1.11.35-1.45.68a6.59,6.59,0,0,0-1,1.22q-.08-.85-.21-1.7l0,0c.81-.71,2.1-1.82,1.94-3a.36.36,0,0,0-.26-.26c-.5-.15-.86.25-1.11.63a9.63,9.63,0,0,0-.81,1.56q-.23-1.18-.55-2.35a.36.36,0,0,0-.7.18c.11.4.21.79.3,1.19-.58-.57-1.24-.95-1.78-.51-1.22,1,1.42,2.3,2.19,2.63.05.32.09.65.13,1a1.37,1.37,0,0,0-.74-.25c-.6,0-1.13.48-.84,1.09a1.69,1.69,0,0,0,.77.65l1,.56c0,.35,0,.71,0,1.06a1.87,1.87,0,0,0-1.3-.64.78.78,0,0,0-.73,1c.25.68,1.27,1,1.86,1.26l.14,0a28.82,28.82,0,0,1-.42,3.81C190.35,121.65,191.05,121.85,191.14,121.38Z" fill="#1a7a23"></path><path d="M190.49,108.82s1.64-3.43-1-5.05C189.47,103.77,186.87,106.43,190.49,108.82Z" fill="#1a7a23"></path></g></g></svg>