<svg width="40" height="40" viewBox="0 0 40 40" fill="none" xmlns="http://www.w3.org/2000/svg">
<g clip-path="url(#clip0_2701_15124)">
<path d="M38.7489 18.4784H22.916C22.226 18.4784 21.666 17.9266 21.666 17.2466C21.666 16.5666 22.226 16.0148 22.916 16.0148H38.7489C39.4389 16.0148 39.9989 16.5666 39.9989 17.2466C39.9989 17.9266 39.4389 18.4784 38.7489 18.4784Z" fill="#D20000"/>
<path d="M32.4989 24.6375C32.1788 24.6375 31.859 24.5175 31.6155 24.2763C31.1272 23.7948 31.1272 23.0147 31.6155 22.5335L36.9821 17.2451L31.6155 11.9564C31.1272 11.4752 31.1272 10.6951 31.6155 10.2139C32.104 9.73241 32.8956 9.73241 33.3839 10.2139L39.6337 16.373C40.122 16.8541 40.122 17.6342 39.6337 18.1154L33.3839 24.2745C33.1389 24.5175 32.819 24.6375 32.4989 24.6375V24.6375Z" fill="#D20000"/>
<path d="M13.333 39.4192C12.9763 39.4192 12.6378 39.3699 12.2997 39.2665L2.26983 35.9734C0.905123 35.5036 0 34.2505 0 32.8497V3.28617C0 1.47454 1.49501 0.00123596 3.33333 0.00123596C3.68976 0.00123596 4.02819 0.0505566 4.36662 0.15401L14.3962 3.44706C15.7612 3.91681 16.666 5.16997 16.666 6.5708V36.1343C16.666 37.9459 15.1713 39.4192 13.333 39.4192ZM3.33333 2.46486C2.87497 2.46486 2.49992 2.83446 2.49992 3.28617V32.8497C2.49992 33.1994 2.73826 33.5245 3.07821 33.6412L13.0611 36.9195C13.1328 36.9424 13.2262 36.9556 13.333 36.9556C13.7914 36.9556 14.1661 36.586 14.1661 36.1343V6.5708C14.1661 6.22105 13.9278 5.89595 13.5878 5.77926L3.60493 2.50095C3.53321 2.47809 3.43983 2.46486 3.33333 2.46486V2.46486Z" fill="#D20000"/>
<path d="M25.4157 13.1407C24.7257 13.1407 24.1657 12.5888 24.1657 11.9089V4.51798C24.1657 3.38631 23.231 2.46486 22.0826 2.46486H3.33321C2.64323 2.46486 2.08325 1.91301 2.08325 1.23305C2.08325 0.553085 2.64323 0.00123596 3.33321 0.00123596H22.0826C24.6109 0.00123596 26.6656 2.02639 26.6656 4.51798V11.9089C26.6656 12.5888 26.1056 13.1407 25.4157 13.1407Z" fill="#D20000"/>
<path d="M22.0826 34.4919H15.416C14.726 34.4919 14.166 33.9401 14.166 33.2601C14.166 32.5802 14.726 32.0283 15.416 32.0283H22.0826C23.231 32.0283 24.1657 31.1069 24.1657 29.9752V22.5843C24.1657 21.9044 24.7257 21.3525 25.4157 21.3525C26.1056 21.3525 26.6656 21.9044 26.6656 22.5843V29.9752C26.6656 32.4668 24.6109 34.4919 22.0826 34.4919V34.4919Z" fill="#D20000"/>
</g>
<defs>
<clipPath id="clip0_2701_15124">
<rect width="40" height="39.4192" fill="white"/>
</clipPath>
</defs>
</svg>
