<svg width="20" height="20" viewBox="0 0 20 20" fill="none" xmlns="http://www.w3.org/2000/svg">
<path d="M19.3738 8.74946C19.0288 8.74946 18.7488 9.02945 18.7488 9.37442V16.4515L13.7491 18.4514V11.8743C13.7491 11.5293 13.4692 11.2493 13.1242 11.2493C12.7792 11.2493 12.4992 11.5293 12.4992 11.8743V18.4501L7.49953 16.4502V6.54835L10.3956 7.70703C10.7118 7.83452 11.0793 7.67953 11.208 7.3583C11.3368 7.03832 11.1806 6.67459 10.8593 6.54585L7.1183 5.04844C7.1183 5.04844 7.11831 5.04844 7.11705 5.04844L7.10706 5.04469C6.95832 4.9847 6.79208 4.9847 6.64333 5.04469L6.63209 5.04844C6.63209 5.04844 6.63209 5.04844 6.63084 5.04844L0.392475 7.54454C0.15624 7.63953 0 7.86827 0 8.1245V19.3738C0 19.5813 0.103744 19.775 0.274983 19.8913C0.379976 19.9625 0.501219 19.9988 0.624961 19.9988C0.703706 19.9988 0.782451 19.9838 0.857446 19.9538L6.87457 17.5477L12.8804 19.95C12.8804 19.95 12.8804 19.95 12.8817 19.95L12.8929 19.955C13.0417 20.015 13.2079 20.015 13.3567 19.955L13.3679 19.95C13.3679 19.95 13.3679 19.95 13.3692 19.95L19.6075 17.4552C19.8425 17.3589 19.9988 17.1302 19.9988 16.874V9.37442C19.9988 9.02945 19.7188 8.74946 19.3738 8.74946ZM6.24961 16.4502L1.24992 18.4501V8.54698L6.24961 6.5471V16.4502Z" fill="white"/>
<path d="M15.6242 2.49985C14.5905 2.49985 13.7493 3.34104 13.7493 4.37473C13.7493 5.40842 14.5905 6.24961 15.6242 6.24961C16.6578 6.24961 17.499 5.40842 17.499 4.37473C17.499 3.34104 16.6578 2.49985 15.6242 2.49985ZM15.6242 4.99969C15.2792 4.99969 14.9992 4.71971 14.9992 4.37473C14.9992 4.02975 15.2792 3.74977 15.6242 3.74977C15.9691 3.74977 16.2491 4.02975 16.2491 4.37473C16.2491 4.71971 15.9691 4.99969 15.6242 4.99969Z" fill="white"/>
<path d="M15.624 0C13.2116 0 11.2493 1.96238 11.2493 4.37473C11.2493 6.61959 14.759 10.5956 15.159 11.0418C15.2778 11.1731 15.4465 11.2493 15.624 11.2493C15.8015 11.2493 15.9702 11.1731 16.089 11.0418C16.4889 10.5956 19.9987 6.61959 19.9987 4.37473C19.9987 1.96238 18.0363 0 15.624 0ZM15.624 9.67065C14.2591 8.052 12.4992 5.56715 12.4992 4.37473C12.4992 2.65233 13.9016 1.24992 15.624 1.24992C17.3464 1.24992 18.7488 2.65233 18.7488 4.37473C18.7488 5.5659 16.9889 8.052 15.624 9.67065Z" fill="white"/>
</svg>
